<?xml version="1.0" encoding="UTF-8" standalone="no"?>
<!-- Generator: Adobe Illustrator 19.1.0, SVG Export Plug-In . SVG Version: 6.00 Build 0)  -->

<svg
   xmlns:dc="http://purl.org/dc/elements/1.1/"
   xmlns:cc="http://creativecommons.org/ns#"
   xmlns:rdf="http://www.w3.org/1999/02/22-rdf-syntax-ns#"
   xmlns:svg="http://www.w3.org/2000/svg"
   xmlns="http://www.w3.org/2000/svg"
   xmlns:sodipodi="http://sodipodi.sourceforge.net/DTD/sodipodi-0.dtd"
   xmlns:inkscape="http://www.inkscape.org/namespaces/inkscape"
   version="1.1"
   id="Capa_1"
   x="0px"
   y="0px"
   viewBox="0 0 486 486"
   style="enable-background:new 0 0 486 486;"
   xml:space="preserve"
   sodipodi:docname="favicon.svg"
   inkscape:export-filename="/home/klaus/Downloads/light-bulb.svg.png.ico.png"
   inkscape:export-xdpi="6.3209877"
   inkscape:export-ydpi="6.3209877"
   inkscape:version="0.92.4 (5da689c313, 2019-01-14)"><metadata
   id="metadata40"><rdf:RDF><cc:Work
       rdf:about=""><dc:format>image/svg+xml</dc:format><dc:type
         rdf:resource="http://purl.org/dc/dcmitype/StillImage" /><dc:title></dc:title></cc:Work></rdf:RDF></metadata><defs
   id="defs38" /><sodipodi:namedview
   pagecolor="#ffffff"
   bordercolor="#666666"
   borderopacity="1"
   objecttolerance="10"
   gridtolerance="10"
   guidetolerance="10"
   inkscape:pageopacity="0"
   inkscape:pageshadow="2"
   inkscape:window-width="1328"
   inkscape:window-height="975"
   id="namedview36"
   showgrid="false"
   inkscape:zoom="0.48559671"
   inkscape:cx="-56.631356"
   inkscape:cy="233.73305"
   inkscape:window-x="1692"
   inkscape:window-y="57"
   inkscape:window-maximized="0"
   inkscape:current-layer="Capa_1" />
<path
   style="opacity:1;fill:#666666;fill-opacity:1;stroke:none;stroke-width:3.34726238;stroke-linecap:round;stroke-linejoin:round;stroke-miterlimit:4;stroke-dasharray:none;stroke-dashoffset:20.60976791;stroke-opacity:1;paint-order:markers stroke fill"
   d="M 0 0 L 0 486 L 486 486 L 486 0 L 0 0 z M 243 42.917969 C 249.17539 42.917969 254.11523 47.940149 254.11523 54.033203 L 254.11523 92.978516 C 254.11523 99.153909 249.09305 104.0957 243 104.0957 C 236.90695 104.0957 231.88477 99.153909 231.88477 92.978516 L 231.88477 54.033203 C 231.88477 47.85781 236.82461 42.917969 243 42.917969 z M 115.00391 95.798828 C 117.84459 95.798828 120.68522 96.890293 122.86719 99.072266 L 150.45117 126.65625 C 154.81512 131.02019 154.81512 138.01887 150.45117 142.38281 C 148.31037 144.52362 145.42842 145.59375 142.62891 145.59375 C 139.82939 145.59375 136.94744 144.52362 134.80664 142.38281 L 107.14062 114.79883 C 102.77668 110.43488 102.77668 103.43621 107.14062 99.072266 C 109.3226 96.890293 112.16323 95.798828 115.00391 95.798828 z M 370.91211 95.880859 C 373.75279 95.880859 376.59342 96.972325 378.77539 99.154297 C 383.13934 103.51824 383.13934 110.51691 378.77539 114.88086 L 351.19336 142.46484 C 349.05256 144.60565 346.17061 145.67578 343.37109 145.67578 C 340.48924 145.67578 337.68994 144.60565 335.4668 142.46484 C 331.10285 138.1009 331.10285 131.10223 335.4668 126.73828 L 363.04883 99.154297 C 365.2308 96.972325 368.07143 95.880859 370.91211 95.880859 z M 242.3418 136.45312 C 297.09695 136.04143 341.55859 180.34086 341.55859 235.01367 C 341.55859 261.60903 331.019 285.73275 313.89258 303.43555 C 300.88308 316.93907 292.48506 334.14826 289.68555 352.50977 C 288.45047 360.41427 281.61606 366.26172 273.54688 366.26172 L 212.36914 366.26172 C 204.3823 366.26172 197.46719 360.4963 196.31445 352.5918 C 193.4326 334.23029 184.9509 316.7747 171.94141 303.35352 C 155.14434 285.89774 144.68842 262.18531 144.44141 236.08398 C 143.86504 181.24649 187.50431 136.86482 242.3418 136.45312 z M 243 164.20117 C 203.80684 164.20117 171.85937 196.0663 171.85938 235.3418 C 171.85938 241.43485 176.79922 246.45898 182.97461 246.45898 C 189.06766 246.45898 194.0918 241.51719 194.0918 235.3418 C 194.0918 208.33474 216.07529 186.43359 243 186.43359 C 249.17539 186.43359 254.11523 181.49375 254.11523 175.31836 C 254.11523 169.2253 249.17539 164.20117 243 164.20117 z M 62.101562 223.81445 L 101.04883 223.81445 C 107.22422 223.81445 112.16406 228.83859 112.16406 234.93164 C 112.16406 241.10703 107.22422 246.04688 101.04883 246.04688 L 62.101562 246.04688 C 55.926169 246.04687 50.986328 241.0247 50.986328 234.93164 C 50.986328 228.75625 56.008508 223.81445 62.101562 223.81445 z M 384.95117 223.81445 L 423.89844 223.81445 C 430.07383 223.81445 435.01367 228.83859 435.01367 234.93164 C 435.01367 241.10703 429.99149 246.04688 423.89844 246.04688 L 384.95117 246.04688 C 378.77578 246.04687 373.83594 241.0247 373.83594 234.93164 C 373.83594 228.75625 378.85812 223.81445 384.95117 223.81445 z M 142.62891 324.20703 C 145.46959 324.20703 148.31037 325.29654 150.45117 327.47852 C 154.81512 331.84246 154.81512 338.84113 150.45117 343.20508 L 122.86719 370.78906 C 120.72638 372.92987 117.84443 374 115.04492 374 C 112.24541 374 109.36541 372.92987 107.22461 370.78906 C 102.86066 366.42512 102.86066 359.42644 107.22461 355.0625 L 134.80664 327.47852 C 136.94744 325.29654 139.78823 324.20703 142.62891 324.20703 z M 343.33008 324.20703 C 346.17076 324.20703 349.01139 325.29654 351.19336 327.47852 L 378.69336 355.0625 C 383.0573 359.42644 383.0573 366.42512 378.69336 370.78906 C 376.55256 372.92987 373.67061 374 370.87109 374 C 368.07158 374 365.18963 372.92987 363.04883 370.78906 L 335.4668 343.20508 C 331.10285 338.84113 331.10285 331.84246 335.4668 327.47852 C 337.64877 325.29654 340.4894 324.20703 343.33008 324.20703 z M 208.58203 381.24609 L 277.33594 381.24609 C 283.59367 381.32843 288.61523 386.35164 288.61523 392.60938 L 288.61523 404.30078 C 288.61523 413.60504 281.78124 421.34469 272.88867 422.66211 L 270.00781 433.28516 C 268.44338 439.04886 263.25486 443.08203 257.24414 443.08203 L 228.67383 443.08203 C 222.66311 443.08203 217.47459 439.04886 215.91016 433.28516 L 213.11133 422.66211 C 204.13642 421.26235 197.30273 413.60535 197.30273 404.21875 L 197.30273 392.52734 C 197.30273 386.26961 202.3243 381.24609 208.58203 381.24609 z "
   id="rect847" /><g
   id="g3"
   transform="matrix(0.82338576,0,0,0.82338576,42.91726,42.91726)">
	
</g>
<g
   id="g5">
</g>
<g
   id="g7">
</g>
<g
   id="g9">
</g>
<g
   id="g11">
</g>
<g
   id="g13">
</g>
<g
   id="g15">
</g>
<g
   id="g17">
</g>
<g
   id="g19">
</g>
<g
   id="g21">
</g>
<g
   id="g23">
</g>
<g
   id="g25">
</g>
<g
   id="g27">
</g>
<g
   id="g29">
</g>
<g
   id="g31">
</g>
<g
   id="g33">
</g>
</svg>